<svg xmlns="http://www.w3.org/2000/svg" width="100%" height="100%" fill="none" preserveAspectRatio="xMidYMid slice">
  <g opacity=".15" clip-path="url(#E)">
    <path d="M1466.4 1700c950.37 0 1720.8-600 1720.8-1300S2416.77-900 1466.4-900-254.4-350-254.4 400s770.428 1300 1720.8 1300z" fill="url(#C)"/>
    <path d="M394.2 1700c746.58 0 1351.8-470 1351.8-1050S1140.78-350 394.2-350-957.6 100-957.6 680-352.38 1700 394.2 1700z" fill="url(#A)"/>
    <path d="M1548.6 1750c631.92 0 1144.2-400 1144.2-900S2180.52 50 1548.6 50 404.4 450 404.4 950s512.276 900 1144.2 900z" fill="url(#B)"/>
    <path d="M265.8 1150c690.246 0 1249.8-440 1249.8-980S956.046-750 265.8-750-984-310-984 230-424.445 1150 265.8 1150z" fill="url(#C)"/>
  </g>
  <defs>
    <radialGradient id="A" cx="0" cy="0" r="1" gradientUnits="userSpaceOnUse" gradientTransform="translate(1466.4 400) rotate(90) scale(1300 1720.8)">
      <stop stop-color="#107c10" stop-opacity=".8"/>
      <stop offset="1" stop-color="#c4c4c4" stop-opacity="0"/>
    </radialGradient>
    <radialGradient id="B" cx="0" cy="0" r="1" gradientUnits="userSpaceOnUse" gradientTransform="translate(394.2 680) rotate(90) scale(1050 1351.8)">
      <stop stop-color="#0078d4" stop-opacity=".7"/>
      <stop offset="1" stop-color="#c4c4c4" stop-opacity="0"/>
    </radialGradient>
    <radialGradient id="C" cx="0" cy="0" r="1" gradientUnits="userSpaceOnUse" gradientTransform="translate(1548.6 950) rotate(90) scale(900 1144.2)">
      <stop stop-color="#ffb900" stop-opacity=".6"/>
      <stop offset="1" stop-color="#c4c4c4" stop-opacity="0"/>
    </radialGradient>
    <radialGradient id="D" cx="0" cy="0" r="1" gradientUnits="userSpaceOnUse" gradientTransform="translate(265.8 230) rotate(90) scale(980 1249.8)">
      <stop stop-color="#d83b01" stop-opacity=".5"/>
      <stop offset="1" stop-color="#c4c4c4" stop-opacity="0"/>
    </radialGradient>
    <clipPath id="E">
      <path fill="#fff" d="M0 0h1920v1080H0z"/>
    </clipPath>
  </defs>
</svg>
